<svg xmlns="http://www.w3.org/2000/svg" viewBox="0 0 1024 1024">
  <defs>
    <linearGradient id="bg" x1="96" y1="150" x2="920" y2="900" gradientUnits="userSpaceOnUse">
      <stop offset="0" stop-color="#18d8f1"/>
      <stop offset="0.36" stop-color="#2f70fb"/>
      <stop offset="0.67" stop-color="#8b2cff"/>
      <stop offset="1" stop-color="#f622c9"/>
    </linearGradient>
    <radialGradient id="bgGlow" cx="36%" cy="28%" r="65%">
      <stop offset="0" stop-color="#68e9ff" stop-opacity="0.36"/>
      <stop offset="0.62" stop-color="#ffffff" stop-opacity="0"/>
    </radialGradient>
    <linearGradient id="board" x1="218" y1="316" x2="816" y2="842" gradientUnits="userSpaceOnUse">
      <stop offset="0" stop-color="#2b2769"/>
      <stop offset="0.44" stop-color="#17134f"/>
      <stop offset="1" stop-color="#08072d"/>
    </linearGradient>
    <linearGradient id="boardEdge" x1="260" y1="274" x2="866" y2="456" gradientUnits="userSpaceOnUse">
      <stop offset="0" stop-color="#302b73"/>
      <stop offset="1" stop-color="#090735"/>
    </linearGradient>
    <linearGradient id="stripe" x1="248" y1="294" x2="828" y2="470" gradientUnits="userSpaceOnUse">
      <stop offset="0" stop-color="#ffffff"/>
      <stop offset="1" stop-color="#f1dbff"/>
    </linearGradient>
    <linearGradient id="play" x1="416" y1="560" x2="590" y2="732" gradientUnits="userSpaceOnUse">
      <stop offset="0" stop-color="#26e2f4"/>
      <stop offset="0.52" stop-color="#6372ff"/>
      <stop offset="1" stop-color="#cf35ff"/>
    </linearGradient>
    <linearGradient id="lightCut" x1="578" y1="585" x2="850" y2="875" gradientUnits="userSpaceOnUse">
      <stop offset="0" stop-color="#f8ecff"/>
      <stop offset="1" stop-color="#e5a7ff"/>
    </linearGradient>
    <clipPath id="baseClip">
      <path d="M184 490h660c22 0 40 18 40 40v218c0 77-62 139-139 139H291c-59 0-107-48-107-107V490z"/>
    </clipPath>
    <clipPath id="lowerSlateClip">
      <rect x="184" y="402" width="684" height="102" rx="30"/>
    </clipPath>
    <clipPath id="topSlateClip">
      <rect x="258" y="248" width="612" height="96" rx="45"/>
    </clipPath>
    <filter id="softShadow" x="-20%" y="-20%" width="140%" height="150%">
      <feDropShadow dx="0" dy="22" stdDeviation="22" flood-color="#070323" flood-opacity="0.42"/>
    </filter>
    <filter id="smallShadow" x="-25%" y="-25%" width="150%" height="150%">
      <feDropShadow dx="0" dy="7" stdDeviation="7" flood-color="#050219" flood-opacity="0.36"/>
    </filter>
  </defs>

  <rect x="8" y="8" width="1008" height="1008" rx="198" fill="url(#bg)"/>
  <rect x="8" y="8" width="1008" height="1008" rx="198" fill="url(#bgGlow)"/>

  <g filter="url(#softShadow)">
    <g transform="rotate(-12 565 318)">
      <rect x="258" y="248" width="612" height="96" rx="45" fill="url(#boardEdge)"/>
      <g clip-path="url(#topSlateClip)">
        <path d="M322 236h82l-72 132h-82z" fill="url(#stripe)"/>
        <path d="M482 236h82l-72 132h-82z" fill="url(#stripe)"/>
        <path d="M642 236h82l-72 132h-82z" fill="url(#stripe)"/>
        <path d="M802 236h82l-72 132h-82z" fill="url(#stripe)"/>
        <path d="M258 334h612v16H258z" fill="#09062d" opacity="0.68"/>
      </g>
    </g>

    <path d="M184 490h660c22 0 40 18 40 40v218c0 77-62 139-139 139H291c-59 0-107-48-107-107V490z" fill="url(#board)"/>
    <g clip-path="url(#baseClip)">
      <path d="M390 887 884 546v341z" fill="url(#lightCut)"/>
      <path d="M410 887 884 558" fill="none" stroke="#6e37ff" stroke-width="20"/>
      <path d="M432 887 884 570" fill="none" stroke="#08062f" stroke-width="18"/>
      <path d="M582 812c11 13 27 16 40 3l30-30c12-12 12-32 0-44l-11-11-70 49 11 33z" fill="#0b0832"/>
      <path d="M650 760c11 13 27 16 40 3l30-30c12-12 12-32 0-44l-11-11-70 49 11 33z" fill="#0b0832"/>
      <path d="M718 709c11 13 28 16 41 3l30-30c12-12 12-32 0-44l-11-11-70 49 10 33z" fill="#0b0832"/>
    </g>

    <rect x="184" y="402" width="684" height="102" rx="30" fill="url(#boardEdge)"/>
    <g clip-path="url(#lowerSlateClip)">
      <path d="M306 390h88l-70 130h-88z" fill="url(#stripe)"/>
      <path d="M466 390h88l-70 130h-88z" fill="url(#stripe)"/>
      <path d="M626 390h88l-70 130h-88z" fill="url(#stripe)"/>
      <path d="M786 390h88l-70 130h-88z" fill="url(#stripe)"/>
    </g>

    <path d="M184 340c0-25 20-45 45-45h33c23 0 44 11 58 30l72 96c18 24 7 59-21 69-6 2-13 4-20 4H232c-27 0-48-22-48-48V340z" fill="#282466"/>
    <path d="M184 340c0-25 20-45 45-45h33c23 0 44 11 58 30l72 96c18 24 7 59-21 69-6 2-13 4-20 4H232c-27 0-48-22-48-48V340z" fill="none" stroke="#51499e" stroke-opacity="0.38" stroke-width="3"/>
    <circle cx="232" cy="356" r="18" fill="#fbf6ff" filter="url(#smallShadow)"/>
    <circle cx="231" cy="442" r="18" fill="#fbf6ff" filter="url(#smallShadow)"/>
    <circle cx="319" cy="442" r="18" fill="#fbf6ff" filter="url(#smallShadow)"/>

    <path d="M415 580c0-26 29-41 51-27l130 83c21 14 21 46 0 60l-130 83c-22 14-51-1-51-27V580z" fill="url(#play)"/>
  </g>
</svg>
