<?xml version="1.0" encoding="UTF-8"?>
<svg xmlns="http://www.w3.org/2000/svg" width="1024" height="1024" viewBox="0 0 1024 1024">
  <defs>
    <linearGradient id="background" x1="128" y1="96" x2="896" y2="928" gradientUnits="userSpaceOnUse">
      <stop offset="0" stop-color="#161a22"/>
      <stop offset="1" stop-color="#101216"/>
    </linearGradient>
    <linearGradient id="blade" x1="248" y1="728" x2="764" y2="212" gradientUnits="userSpaceOnUse">
      <stop offset="0" stop-color="#23c7d9"/>
      <stop offset="1" stop-color="#79e26f"/>
    </linearGradient>
    <filter id="shadow" x="-20%" y="-20%" width="140%" height="140%">
      <feDropShadow dx="0" dy="24" stdDeviation="28" flood-color="#000000" flood-opacity="0.35"/>
    </filter>
  </defs>

  <rect x="80" y="80" width="864" height="864" rx="188" fill="url(#background)"/>
  <path d="M224 702L702 224c33-33 87-33 120 0s33 87 0 120L344 822c-33 33-87 33-120 0s-33-87 0-120z" fill="url(#blade)" filter="url(#shadow)"/>
  <path d="M278 300l446 446" fill="none" stroke="#f5f7fa" stroke-width="88" stroke-linecap="round" opacity="0.94"/>
  <circle cx="308" cy="716" r="82" fill="#101216" stroke="#f5f7fa" stroke-width="42"/>
  <circle cx="716" cy="308" r="82" fill="#101216" stroke="#f5f7fa" stroke-width="42"/>

  <rect x="492" y="680" width="380" height="176" rx="52" fill="#f5f7fa"/>
  <text x="682" y="794"
        text-anchor="middle"
        font-family="Avenir Next, Helvetica, Arial, sans-serif"
        font-size="86"
        font-weight="800"
        fill="#101216">DEV</text>
</svg>
